# xmcd
#
# Track frame offsets: 
#        150
#        22702
#        40977
#        56341
#        70628
#        89365
#        107350
#        134242
#        156237
#        172276
#        197354
#        217198
#
# Disc length: 3206 seconds
#
# Revision: 1
# Processed by: cddbd v1.5.2PL0 Copyright (c) Steve Scherf et al.
# Submitted via: ExactAudioCopy v1.1
#
DISCID=a40c840c
DTITLE=Joseph Arthur - The ballad of Boogie Christ
DYEAR=2013
DGENRE=Folk-Rock
TTITLE0=Blue lights in the rear view
TTITLE1=Maybe yes
TTITLE2=I am the witness
TTITLE3=Travel as Equals [acoustic]
TTITLE4=Holding the void
TTITLE5=Missy Baba
TTITLE6=Akron skies
TTITLE7=Junkies and limousines
TTITLE8=We began to dance again
TTITLE9=Whisper of whispers
TTITLE10=House of your love
TTITLE11=In the city there is grace
EXTD=
EXTT0=
EXTT1=
EXTT2=
EXTT3=
EXTT4=
EXTT5=
EXTT6=
EXTT7=
EXTT8=
EXTT9=
EXTT10=
EXTT11=
PLAYORDER=
